<svg width="222" height="45" viewBox="0 0 222 45" fill="none" xmlns="http://www.w3.org/2000/svg">
<path d="M215.886 39.9685C214.334 39.9685 213.017 39.7828 211.937 39.4115C210.857 39.0402 210.047 38.3314 209.507 37.285C208.967 36.2387 208.697 34.7197 208.697 32.7283V20.7325C208.697 20.0873 208.174 19.5642 207.529 19.5642H205.561C204.916 19.5642 204.393 19.0412 204.393 18.396V16.0238C204.393 15.3786 204.916 14.8556 205.561 14.8556H207.529C208.174 14.8556 208.697 14.3325 208.697 13.6873V9.59367C208.697 8.94848 209.22 8.42545 209.865 8.42545H213.098C213.743 8.42545 214.266 8.94848 214.266 9.59367V13.6873C214.266 14.3325 214.789 14.8556 215.434 14.8556H219.832C220.477 14.8556 221 15.3786 221 16.0238V18.396C221 19.0412 220.477 19.5642 219.832 19.5642H215.434C214.789 19.5642 214.266 20.0873 214.266 20.7325V31.9688C214.266 32.9477 214.351 33.6734 214.519 34.1459C214.722 34.5847 215.059 34.8716 215.532 35.0067C216.038 35.1417 216.764 35.2092 217.709 35.2092H219.579C220.224 35.2092 220.747 35.7322 220.747 36.3774V38.8003C220.747 39.4454 220.224 39.9685 219.579 39.9685H215.886Z" fill="#141413"/>
<path d="M193.481 40.5767C190.308 40.5767 187.658 39.8341 185.532 38.3489C183.785 37.1088 182.661 35.4452 182.161 33.3579C181.998 32.6802 182.547 32.0707 183.244 32.0707H186.691C187.252 32.0707 187.718 32.4784 187.93 32.9981C188.268 33.8228 188.835 34.5094 189.633 35.0579C190.713 35.8005 192.063 36.1718 193.684 36.1718C195.27 36.1718 196.485 35.8511 197.329 35.2098C198.207 34.5685 198.645 33.7753 198.645 32.8302C198.645 32.0538 198.358 31.4631 197.785 31.0581C197.245 30.653 196.232 30.3324 194.747 30.0961C194.173 29.9948 193.498 29.8936 192.722 29.7923C191.945 29.6573 191.27 29.5223 190.696 29.3873C189.414 29.151 188.198 28.7459 187.051 28.1721C185.937 27.5983 185.026 26.822 184.317 25.8431C183.608 24.8305 183.254 23.5647 183.254 22.0458C183.254 19.8518 184.081 18.0122 185.734 16.527C187.388 15.0081 189.734 14.2486 192.772 14.2486C195.776 14.2486 198.19 14.9237 200.012 16.2739C201.555 17.368 202.55 18.9167 202.997 20.9202C203.148 21.5959 202.6 22.1977 201.908 22.1977H198.809C198.201 22.1977 197.72 21.7201 197.514 21.1486C197.263 20.4528 196.813 19.908 196.164 19.5142C195.219 18.9404 194.089 18.6535 192.772 18.6535C191.388 18.6535 190.291 18.9404 189.481 19.5142C188.671 20.0881 188.266 20.7969 188.266 21.6407C188.266 23.1934 189.498 24.1892 191.962 24.628C192.333 24.6955 192.755 24.7798 193.228 24.8811C193.734 24.9486 194.24 25.033 194.747 25.1343C195.287 25.2018 195.743 25.2693 196.114 25.3368C196.991 25.438 197.886 25.6406 198.797 25.9444C199.709 26.2144 200.552 26.6026 201.329 27.1089C202.105 27.6152 202.73 28.2903 203.202 29.1341C203.675 29.978 203.911 31.0412 203.911 32.3238C203.911 33.944 203.489 35.3786 202.645 36.6275C201.835 37.8426 200.654 38.8046 199.101 39.5134C197.548 40.2223 195.675 40.5767 193.481 40.5767Z" fill="#141413"/>
<path d="M169.261 40.5767C166.763 40.5767 164.553 40.0366 162.629 38.9565C160.738 37.8426 159.236 36.3068 158.122 34.3491C157.042 32.3914 156.502 30.113 156.502 27.5139C156.502 24.9149 157.042 22.6196 158.122 20.6281C159.203 18.6029 160.705 17.0333 162.629 15.9194C164.553 14.8056 166.78 14.2486 169.312 14.2486C171.776 14.2486 173.919 14.7887 175.742 15.8688C177.598 16.9489 179.033 18.4004 180.046 20.2231C181.058 22.0458 181.564 24.0879 181.564 26.3494C181.564 26.6869 181.564 27.0582 181.564 27.4633C181.564 27.5466 181.563 27.6324 181.559 27.7209C181.537 28.3018 181.031 28.7291 180.45 28.7291H161.772C161.126 28.7291 160.603 28.206 160.603 27.5608V26.1506C160.603 25.5054 161.126 24.9824 161.772 24.9824H174.763C175.432 24.9824 175.977 24.4162 175.836 23.7613C175.551 22.4336 174.912 21.3386 173.919 20.4762C172.67 19.3623 171.135 18.8054 169.312 18.8054C167.995 18.8054 166.78 19.1092 165.666 19.7168C164.553 20.2906 163.658 21.1513 162.983 22.2989C162.308 23.4128 161.97 24.8474 161.97 26.6026V28.0202C161.97 29.7079 162.308 31.1593 162.983 32.3745C163.658 33.5559 164.536 34.4503 165.616 35.0579C166.73 35.6655 167.945 35.9693 169.261 35.9693C170.746 35.9693 171.995 35.6317 173.008 34.9567C173.804 34.426 174.433 33.7493 174.895 32.9266C175.127 32.5139 175.545 32.2226 176.018 32.2226H179.32C180.092 32.2226 180.653 32.9608 180.348 33.6703C179.909 34.6938 179.319 35.6458 178.577 36.5262C177.531 37.7751 176.214 38.7708 174.628 39.5134C173.075 40.2223 171.286 40.5767 169.261 40.5767Z" fill="#141413"/>
<path d="M141.585 39.9717C141.097 39.9717 140.661 39.6687 140.49 39.2117L131.995 16.4352C131.71 15.6718 132.275 14.8588 133.09 14.8588H136.399C136.896 14.8588 137.339 15.1735 137.502 15.6432L143.418 32.6506C143.647 33.31 144.58 33.3089 144.808 32.649L150.679 15.6457C150.842 15.1748 151.285 14.8588 151.783 14.8588H155.091C155.905 14.8588 156.47 15.6718 156.185 16.4352L147.69 39.2117C147.519 39.6687 147.083 39.9717 146.595 39.9717H141.585Z" fill="#141413"/>
<path d="M116.261 39.9723C115.616 39.9723 115.093 39.4493 115.093 38.8041V16.0276C115.093 15.3824 115.616 14.8594 116.261 14.8594H119.494C120.139 14.8594 120.662 15.3824 120.662 16.0276V16.5771C120.662 17.1003 121.491 17.3218 121.83 16.9235C122.208 16.4792 122.629 16.095 123.092 15.7707C124.105 15.0282 125.286 14.6569 126.637 14.6569H128.962C129.607 14.6569 130.13 15.1799 130.13 15.8251V18.5011C130.13 19.1463 129.607 19.6693 128.962 19.6693H126.08C124.932 19.6693 123.953 19.99 123.143 20.6313C122.333 21.2389 121.709 22.2009 121.27 23.5173C120.865 24.8337 120.662 26.5045 120.662 28.5297V38.8041C120.662 39.4493 120.139 39.9723 119.494 39.9723H116.261Z" fill="#141413"/>
<path d="M97.2748 40.5767C94.777 40.5767 92.6167 40.0029 90.794 38.8552C89.0051 37.7076 87.6043 36.138 86.5916 34.1466C85.6128 32.1213 85.1234 29.8598 85.1234 27.362C85.1234 24.8305 85.6128 22.5858 86.5916 20.6281C87.6043 18.6366 89.0051 17.084 90.794 15.9701C92.6167 14.8224 94.777 14.2486 97.2748 14.2486C99.3 14.2486 101.123 14.7718 102.743 15.8182C103.539 16.3155 104.12 16.7534 104.543 17.1323C104.94 17.4881 105.629 17.2782 105.629 16.7447V16.0244C105.629 15.3792 106.152 14.8562 106.797 14.8562H109.878C110.523 14.8562 111.046 15.3792 111.046 16.0244V38.8009C111.046 39.4461 110.523 39.9691 109.878 39.9691H106.798C106.153 39.9691 105.629 39.4453 105.63 38.7996L105.631 38.1077C105.632 37.4117 104.805 37.0468 104.291 37.5164L104.211 37.5895C103.401 38.4671 102.405 39.1928 101.224 39.7666C100.076 40.3066 98.7599 40.5767 97.2748 40.5767ZM98.2874 35.7161C99.6375 35.7161 100.853 35.3955 101.933 34.7541C103.047 34.1128 103.924 33.1677 104.566 31.9188C105.207 30.6699 105.528 29.1679 105.528 27.4127C105.528 25.6237 105.207 24.1216 104.566 22.9065C103.924 21.6576 103.047 20.7125 101.933 20.0712C100.853 19.4299 99.6375 19.1092 98.2874 19.1092C96.1946 19.1092 94.4226 19.8349 92.9711 21.2863C91.5535 22.704 90.8446 24.7292 90.8446 27.362C90.8446 30.0286 91.5535 32.0876 92.9711 33.539C94.4226 34.9904 96.1946 35.7161 98.2874 35.7161Z" fill="#141413"/>
<path d="M59.6431 39.9717C58.9979 39.9717 58.4749 39.4487 58.4749 38.8035V4.68568C58.4749 4.04049 58.9979 3.51746 59.6431 3.51746H62.8761C63.5212 3.51746 64.0443 4.04049 64.0443 4.68568V16.1846C64.0443 16.9321 65.1743 17.2961 65.7284 16.7945C66.2667 16.3072 66.8698 15.8813 67.5378 15.517C69.0567 14.6731 70.7276 14.2512 72.5503 14.2512C75.5544 14.2512 77.9171 15.2132 79.6386 17.1372C81.3938 19.0274 82.2714 21.8458 82.2714 25.5925V38.8035C82.2714 39.4487 81.7484 39.9717 81.1032 39.9717H77.9209C77.2757 39.9717 76.7526 39.4487 76.7526 38.8035V26.1495C76.7526 23.7867 76.2801 22.0146 75.335 20.8332C74.3899 19.6181 72.9384 19.0105 70.9807 19.0105C68.9892 19.0105 67.3353 19.7025 66.0189 21.0864C64.7025 22.4703 64.0443 24.4449 64.0443 27.0102V38.8035C64.0443 39.4487 63.5212 39.9717 62.8761 39.9717H59.6431Z" fill="#141413"/>
<path d="M39.0239 41.4749C39.0239 42.8556 37.9046 43.9749 36.5239 43.9749H33.1999C31.8192 43.9749 30.6999 42.8556 30.6999 41.4749V3.29001C30.6999 1.9093 31.8192 0.790009 33.1999 0.790009L36.5239 0.790009C37.9046 0.790009 39.0239 1.9093 39.0239 3.29001V41.4749Z" fill="#FA5D00"/>
<path d="M24.1474 15.4649C24.1474 17.3136 22.8806 18.9214 21.0832 19.3539L15.8352 20.6166V6.61435C15.8352 5.23364 16.9544 4.11435 18.3352 4.11435H21.6474C23.0281 4.11435 24.1474 5.23364 24.1474 6.61435V15.4649Z" fill="#FA5D00"/>
<path d="M9.31251 33.735C9.31238 35.1156 8.19313 36.2347 6.81251 36.2347H3.50023C2.11943 36.2347 1.0001 35.1153 1.00023 33.7345L1.00216 13.4243C1.00229 12.0436 2.12154 10.9245 3.50215 10.9245H6.81443C8.19523 10.9245 9.31456 12.0439 9.31443 13.4247L9.31251 33.735Z" fill="#FA5D00"/>
<path d="M24.1501 39.073C24.1505 40.454 23.0311 41.5737 21.6501 41.5737H18.3377C16.9573 41.5737 15.8382 40.4549 15.8377 39.0745L15.8347 29.5432C15.8341 27.6941 17.1011 26.0856 18.899 25.653L24.146 24.3905L24.1501 39.073Z" fill="#FA5D00"/>
</svg>
